<?xml version="1.0" encoding="UTF-8"?>
<svg width="20px" height="16px" viewBox="0 0 20 16" version="1.1" xmlns="http://www.w3.org/2000/svg" xmlns:xlink="http://www.w3.org/1999/xlink">
    <!-- Generator: Sketch 57.1 (83088) - https://sketch.com -->
    <title>icon-menu</title>
    <desc>Created with Sketch.</desc>
    <g id="Page-1" stroke="none" stroke-width="1" fill="none" fill-rule="evenodd">
        <g id="Landing" transform="translate(-16.000000, -20.000000)" fill="#000000" fill-rule="nonzero">
            <g id="icon-menu" transform="translate(16.000000, 20.000000)">
                <path d="M1.11111111,0 L18.8888889,0 C19.5025386,0 20,0.497461389 20,1.11111111 C20,1.72476083 19.5025386,2.22222222 18.8888889,2.22222222 L1.11111111,2.22222222 C0.497461389,2.22222222 0,1.72476083 0,1.11111111 C0,0.497461389 0.497461389,0 1.11111111,0 Z M1.11111111,6.66666667 L18.8888889,6.66666667 C19.5025386,6.66666667 20,7.16412806 20,7.77777778 C20,8.3914275 19.5025386,8.88888889 18.8888889,8.88888889 L1.11111111,8.88888889 C0.497461389,8.88888889 0,8.3914275 0,7.77777778 C0,7.16412806 0.497461389,6.66666667 1.11111111,6.66666667 Z M1.11111111,13.3333333 L18.8888889,13.3333333 C19.5025386,13.3333333 20,13.8307947 20,14.4444444 C20,15.0580942 19.5025386,15.5555556 18.8888889,15.5555556 L1.11111111,15.5555556 C0.497461389,15.5555556 0,15.0580942 0,14.4444444 C0,13.8307947 0.497461389,13.3333333 1.11111111,13.3333333 Z" id="Shape"></path>
            </g>
        </g>
    </g>
</svg>